<svg width="1440" height="1024" viewBox="0 0 1440 1024" fill="none" xmlns="http://www.w3.org/2000/svg">
<g clip-path="url(#clip0_134_79)">
<rect width="1440" height="1024" fill="white"/>
<path d="M398.735 348.404L-261.827 228.277L127.215 -265.64L398.735 348.404Z" fill="#5200FF" fill-opacity="0.15"/>
<path d="M236.105 397.551L-522.408 588.271L-331.802 -140.22L236.105 397.551Z" fill="#5200FF" fill-opacity="0.15"/>
<path d="M190.637 747.012L-696.745 469.445L87.0731 -176.982L190.637 747.012Z" fill="#5200FF" fill-opacity="0.15"/>
<path d="M584.573 458.17L-294.608 620.515L121.118 -306.372L584.573 458.17Z" fill="#5200FF" fill-opacity="0.15"/>
<g style="mix-blend-mode:multiply">
<path d="M1530.63 1254.75L912.01 993.828L1399.16 596.35L1530.63 1254.75Z" fill="#5200FF" fill-opacity="0.15"/>
<path d="M1361.21 1267.35L579.37 1288.53L923.856 618.934L1361.21 1267.35Z" fill="#5200FF" fill-opacity="0.15"/>
<path d="M1240.82 1598.55L435.05 1134.63L1340.7 674.155L1240.82 1598.55Z" fill="#5200FF" fill-opacity="0.15"/>
<path d="M1688.15 1402.31L794.704 1369.55L1402.07 555.267L1688.15 1402.31Z" fill="#5200FF" fill-opacity="0.15"/>
</g>
</g>
<defs>
<clipPath id="clip0_134_79">
<rect width="1440" height="1024" fill="white"/>
</clipPath>
</defs>
</svg>
